<svg xmlns="http://www.w3.org/2000/svg" width="594" height="420" viewBox="0 0 594 420" version="1.1">
	<path d="M 300.038 98.682 L 299.933 120.364 295.300 125.432 C 286.607 134.942, 272.721 149, 272.020 149 C 271.636 149, 269.575 147.088, 267.442 144.750 C 253.942 129.961, 228.460 104.121, 228.186 104.942 C 227.630 106.610, 229.014 108.258, 245.136 125.134 C 266.224 147.206, 270.019 151.380, 269.739 152.193 C 269.607 152.574, 262.737 159.999, 254.471 168.693 C 231.353 193.007, 229 195.607, 229 196.847 C 229 198.603, 230.729 198.224, 232.193 196.146 C 232.912 195.126, 242.267 185.200, 252.983 174.088 L 272.465 153.884 278.483 160.230 C 281.792 163.721, 287.988 170.267, 292.250 174.777 L 300 182.978 300 204.966 L 300 226.953 307.836 218.727 C 312.145 214.202, 317.273 208.697, 319.232 206.494 L 322.792 202.488 312.646 191.839 C 307.066 185.982, 296.425 174.809, 289 167.010 C 281.575 159.210, 275.500 152.246, 275.500 151.532 C 275.500 150.819, 282.925 142.604, 292 133.277 C 320.694 103.786, 323.140 101.068, 322.290 99.619 C 321.059 97.523, 301.583 77.004, 300.822 77.002 C 300.449 77.001, 300.096 86.757, 300.038 98.682 M 319.456 121.695 C 313.430 128.128, 304.675 137.408, 300 142.319 C 295.325 147.230, 291.500 151.607, 291.500 152.047 C 291.500 152.486, 298.285 159.968, 306.577 168.673 C 314.869 177.378, 323.899 186.913, 326.642 189.863 L 331.631 195.227 335.855 190.427 L 340.080 185.628 333.229 178.564 C 316.719 161.540, 308.999 153.107, 309.001 152.097 C 309.003 151.311, 311.568 148.364, 323.110 135.888 C 335.334 122.674, 339 118.426, 339 117.474 C 339 116.312, 332.643 110.023, 331.456 110.011 C 330.882 110.005, 325.482 115.263, 319.456 121.695 M 228 129.821 L 228 140.120 233.133 145.547 C 238.832 151.573, 238.882 150.876, 232.231 157.999 C 228.101 162.422, 227.850 163.474, 228.207 174.850 L 228.500 184.200 243.712 167.590 L 258.924 150.981 251.159 143.241 C 246.888 138.983, 239.930 131.905, 235.697 127.512 L 228 119.523 228 129.821 M 341 152.035 C 341 183.093, 341.057 184.040, 342.882 183.063 C 343.918 182.509, 345.043 181.331, 345.382 180.446 C 345.722 179.561, 346 166.583, 346 151.607 C 346 125.586, 345.909 124.280, 343.961 122.189 C 342.840 120.985, 341.715 120, 341.461 120 C 341.207 120, 341 134.416, 341 152.035 M 352 151.766 C 352 164.545, 352.299 175, 352.665 175 C 353.509 175, 375 152.973, 375 152.109 C 375 151.756, 369.825 146.307, 363.500 140 L 352 128.533 352 151.766 M 473.248 214.767 C 471.549 217.389, 468.544 221.003, 466.571 222.799 C 460.359 228.451, 447.832 236.418, 438.750 240.491 C 426.490 245.990, 427.074 248.983, 439.500 244.333 C 448.999 240.778, 461.632 233.433, 472.250 225.292 C 475.743 222.613, 478.491 221.175, 479.250 221.627 C 479.938 222.037, 482.075 223.590, 484 225.077 C 488.144 228.279, 494.398 231.746, 510.563 239.800 C 524.698 246.842, 527 247.675, 527 245.751 C 527 244.991, 524.413 243.316, 521.250 242.030 C 511.121 237.910, 499.018 229.329, 489.331 219.399 C 484.069 214.005, 479.348 210, 478.250 210 C 477.065 210, 475.160 211.816, 473.248 214.767 M 74 247.393 C 74 248.709, 73.350 250.035, 72.557 250.340 C 71.363 250.798, 67 262.309, 67 264.999 C 67 265.433, 68.816 265.326, 71.036 264.763 C 73.256 264.199, 75.237 263.910, 75.440 264.119 C 75.783 264.474, 74.387 300.858, 73.776 307.500 L 73.500 310.500 81.500 310.821 C 97.024 311.445, 113.387 306.901, 118.916 300.430 C 123.482 295.087, 122.736 284.405, 117.349 278.003 L 114.870 275.057 117.935 268.636 C 120.569 263.117, 121 261.083, 121 254.166 C 121 249.740, 120.662 245.931, 120.250 245.702 C 119.838 245.473, 114.100 245.871, 107.500 246.585 C 91.471 248.320, 90 248.313, 90 246.500 C 90 245.292, 88.444 245, 82 245 C 74.229 245, 74 245.068, 74 247.393 M 152.397 245.743 L 143.294 246.071 142.714 257.286 C 141.948 272.106, 138.242 288.263, 132.687 301 C 132.225 302.059, 133.531 303.455, 137.132 305.750 C 139.936 307.538, 142.557 309, 142.955 309 C 145.509 309, 150.742 290.690, 154.003 270.338 C 155.472 261.172, 156.683 259.397, 160.587 260.688 C 163.463 261.640, 163.510 261.778, 164.302 271.576 C 166.323 296.577, 168.611 304.470, 175.257 309.369 L 178.015 311.402 182.473 307.026 L 186.932 302.651 185.003 299.075 C 180.444 290.622, 177.534 276.561, 175.414 252.750 L 174.724 245 168.112 245.208 C 164.475 245.322, 157.404 245.563, 152.397 245.743 M 199.467 246.053 C 199.109 246.632, 199.146 261.482, 199.548 279.053 L 200.279 311 206.486 311 L 212.693 311 213.346 298.843 C 213.706 292.157, 214 281.147, 214 274.378 C 214 263.233, 214.183 261.973, 215.934 261.035 C 218.155 259.846, 226.928 259.667, 228.669 260.774 C 229.312 261.184, 230.329 265.339, 230.928 270.009 C 234.121 294.899, 238.238 307.916, 243.872 310.932 C 245.557 311.833, 246.547 311.295, 250.534 307.308 L 255.217 302.626 252.993 298.063 C 247.640 287.079, 243 265.866, 243 252.379 L 243 245 221.559 245 C 207.627 245, 199.890 245.369, 199.467 246.053 M 348.750 245.745 L 340 246.078 340 252.597 C 340 264.765, 336.772 281.065, 331.463 295.701 C 330.108 299.436, 329 302.567, 329 302.660 C 329 302.954, 339.009 309, 339.495 309 C 341.841 309, 347.338 290.259, 350.562 271.270 C 352.440 260.204, 353.326 259.033, 358.368 260.950 C 360.811 261.879, 361 262.385, 361 268.015 C 361 277.164, 362.893 292.893, 364.647 298.315 C 366.109 302.837, 372.541 311, 374.642 311 C 375.166 311, 377.331 309.221, 379.455 307.047 L 383.315 303.093 380.726 297.297 C 376.363 287.527, 372.033 264.157, 372.009 250.250 L 372 245 364.750 245.206 C 360.762 245.319, 353.563 245.561, 348.750 245.745 M 402.250 245.662 C 401.297 246.047, 401 252.086, 401 271.083 C 401 292.299, 400.782 296, 399.535 296 C 397.967 296, 396.328 298.520, 394.890 303.139 C 391.828 312.979, 391.836 312.134, 394.823 310.616 C 396.473 309.778, 398.268 309.563, 399.500 310.058 C 400.600 310.499, 404.006 310.891, 407.070 310.930 C 411.812 310.990, 412.962 310.629, 414.813 308.500 C 416.802 306.213, 417.690 305.999, 425.243 305.989 C 439.724 305.970, 440.442 305.684, 443.451 298.746 C 444.886 295.436, 445.902 292.568, 445.707 292.373 C 445.512 292.178, 439.549 292.462, 432.456 293.003 C 421.331 293.853, 419.349 293.778, 418.030 292.461 C 416.785 291.218, 416.388 286.698, 415.899 268.217 C 415.568 255.723, 415.231 245.387, 415.149 245.250 C 414.874 244.789, 403.515 245.152, 402.250 245.662 M 475.435 246.829 C 466.810 250.877, 459.382 259.607, 456.605 268.960 C 450.321 290.118, 463.264 311, 482.662 311 C 489.285 311, 494.004 308.730, 499.641 302.833 C 512.755 289.113, 513.456 267.366, 501.222 253.824 C 494.196 246.047, 483.361 243.108, 475.435 246.829 M 296.500 246.701 C 285.485 249.282, 277.035 254.041, 270.350 261.429 C 262.992 269.560, 261.200 275.495, 262.949 285.942 C 265.904 303.591, 271.417 308.985, 288.250 310.694 C 294.660 311.345, 294.881 311.064, 292.727 305 C 290.966 300.043, 290.142 299, 287.983 299 C 284.765 299, 278.338 291.983, 277.001 287.010 C 273.365 273.485, 280.953 264.274, 298.815 260.532 C 302.839 259.690, 308.126 259, 310.565 259 C 315.329 259, 315.477 258.807, 314.083 254.399 C 313.578 252.805, 312.895 250.262, 312.564 248.750 C 311.977 246.067, 311.798 246.003, 305.231 246.116 C 301.529 246.180, 297.600 246.443, 296.500 246.701 M 97.500 257.929 C 95.850 258.327, 93.436 259.224, 92.135 259.923 C 90.102 261.015, 89.855 261.706, 90.374 264.847 C 90.706 266.856, 90.983 269.954, 90.989 271.731 C 90.998 274.305, 91.489 275.085, 93.407 275.566 C 96.420 276.322, 99.587 274.670, 103.702 270.196 C 108.089 265.426, 108.948 261.186, 106.011 258.808 C 103.651 256.897, 102.339 256.761, 97.500 257.929 M 479.500 260.214 C 472.819 262.520, 467 271.186, 467 278.827 C 467 287.970, 474.617 297, 482.331 297 C 491.879 297, 499.343 285.254, 497.424 273.250 C 496.018 264.458, 486.743 257.713, 479.500 260.214 M 302.056 283.895 C 299.944 287.843, 299.638 296.763, 301.452 301.514 C 303.161 305.987, 308.278 311, 311.136 311 C 311.932 311, 313.804 308.512, 315.295 305.470 C 317.553 300.868, 317.755 299.861, 316.504 299.470 C 315.677 299.212, 314.318 298.787, 313.485 298.526 C 311.137 297.790, 309.966 293.606, 311.050 289.824 C 311.573 288.003, 312 286.408, 312 286.280 C 312 286.038, 303.837 282, 303.347 282 C 303.195 282, 302.614 282.853, 302.056 283.895 M 95.762 286.596 C 90.615 288.179, 89.183 290.610, 90.442 295.625 C 91.051 298.051, 91.412 298.208, 95.207 297.699 C 100.161 297.035, 104.667 292.938, 105.602 288.250 C 106.215 285.177, 106.094 285.004, 103.375 285.070 C 101.794 285.108, 98.368 285.795, 95.762 286.596 M 154.015 294.750 C 154.024 295.163, 154.636 297.525, 155.376 300 C 156.283 303.036, 157.254 304.473, 158.360 304.417 C 166.499 304.003, 165.938 304.365, 164.815 300.250 C 164.253 298.188, 163.334 295.938, 162.774 295.250 C 161.691 293.921, 153.990 293.482, 154.015 294.750 M 351.575 297.690 C 352.631 303.534, 353.832 305.280, 356.336 304.608 C 357.526 304.289, 359.468 304.021, 360.652 304.014 C 362.790 304, 362.793 303.969, 361.110 299.250 C 359.482 294.685, 359.250 294.488, 355.152 294.190 L 350.887 293.879 351.575 297.690 M 176.750 330.056 C 175.751 330.652, 175 332.296, 175 333.889 C 175 337.146, 178.101 339, 183.547 339 C 185.446 339, 187 339.450, 187 340 C 187 340.550, 184.525 341, 181.500 341 C 177.466 341, 176 341.371, 176 342.393 C 176 345.081, 182.834 345.944, 187.453 343.839 C 189.301 342.997, 190 341.909, 190 339.875 C 190 336.454, 187.634 335, 182.066 335 C 175.820 335, 177.244 333.139, 183.750 332.800 C 188.061 332.575, 189.500 332.125, 189.500 331 C 189.500 329.165, 179.488 328.424, 176.750 330.056 M 197.667 329.667 C 196.496 330.837, 197.015 339.436, 198.363 341.211 C 200.398 343.888, 204.576 345.112, 207.669 343.936 C 211.561 342.456, 212.932 340.094, 212.968 334.809 C 213.023 326.773, 209.401 327.830, 208.819 336.020 C 208.506 340.413, 208.432 340.500, 205 340.500 C 201.718 340.500, 201.483 340.282, 201.230 337 C 200.683 329.901, 199.620 327.714, 197.667 329.667 M 221.571 330.571 C 217.751 334.391, 220.852 338.442, 227.623 338.477 C 230.439 338.492, 231.995 338.945, 231.997 339.750 C 231.999 340.599, 230.235 341, 226.500 341 C 222.466 341, 221 341.371, 221 342.393 C 221 346.299, 232.526 345.658, 235.235 341.600 C 237.349 338.434, 233.325 335, 227.500 335 C 225.025 335, 223 334.550, 223 334 C 223 333.450, 225.475 333, 228.500 333 C 233.333 333, 234 332.758, 234 331 C 234 329.246, 233.333 329, 228.571 329 C 224.970 329, 222.614 329.529, 221.571 330.571 M 243 336.417 C 243 342.491, 243.299 344, 244.500 344 C 245.433 344, 246 343.056, 246 341.500 C 246 339.204, 246.367 339, 250.500 339 C 254.633 339, 255 339.204, 255 341.500 C 255 343.087, 255.564 344, 256.544 344 C 257.821 344, 258.037 342.746, 257.794 336.750 C 257.513 329.832, 255.864 327.051, 255.193 332.366 C 254.948 334.313, 254.202 334.874, 251.430 335.198 C 247.201 335.692, 246.301 335.189, 245.851 332.078 C 245.658 330.746, 244.938 329.471, 244.250 329.245 C 243.324 328.940, 243 330.797, 243 336.417 M 266.639 329.694 C 266.288 330.046, 266 333.408, 266 337.167 C 266 342.574, 266.313 344, 267.500 344 C 268.689 344, 269 342.562, 269 337.059 C 269 330.626, 268.201 328.133, 266.639 329.694 M 285 336.310 C 285 344.524, 285.356 345, 291.500 345 C 295.827 345, 298 344.128, 298 342.393 C 298 341.390, 296.614 341, 293.050 341 L 288.100 341 287.800 335.329 C 287.619 331.911, 287.003 329.494, 286.250 329.246 C 285.325 328.940, 285 330.775, 285 336.310 M 307.763 330.565 C 302.248 333.558, 303.007 341.675, 308.984 343.619 C 319.515 347.044, 325.924 335.281, 316.316 330.163 C 313.452 328.638, 311.111 328.748, 307.763 330.565 M 328.683 329.650 C 328.308 330.026, 328 332.723, 328 335.644 C 328 340.235, 328.346 341.181, 330.554 342.628 C 333.951 344.853, 338.840 344.605, 341.366 342.078 C 343.964 339.480, 344.467 329.500, 342 329.500 C 340.896 329.500, 340.420 330.884, 340.198 334.744 C 339.927 339.448, 339.628 340.055, 337.293 340.641 C 333.377 341.624, 331.543 339.899, 331.187 334.898 C 330.868 330.421, 329.914 328.420, 328.683 329.650 M 351.415 330.362 C 350.427 332.936, 351.463 343.330, 352.750 343.754 C 353.613 344.039, 354 342.903, 354 340.083 C 354 337.837, 354.287 336, 354.638 336 C 354.989 336, 357.262 337.830, 359.688 340.067 C 362.115 342.303, 364.640 343.953, 365.300 343.733 C 366.079 343.474, 366.500 340.907, 366.500 336.417 C 366.500 330.935, 366.189 329.500, 365 329.500 C 363.981 329.500, 363.340 330.860, 363 333.739 L 362.500 337.977 358 333.534 C 353.125 328.721, 352.213 328.281, 351.415 330.362 M 376.635 331.073 C 374.613 332.663, 374 334.031, 374 336.950 C 374 339.043, 374.631 341.279, 375.403 341.920 C 378.128 344.181, 382.527 344.818, 385.830 343.430 C 388.423 342.339, 389 341.531, 389 338.993 C 389 335.915, 388.962 335.893, 384.250 336.195 C 378.868 336.541, 378.266 338.209, 383.211 339.079 C 385.721 339.521, 386.103 339.836, 384.823 340.408 C 380.432 342.372, 375.388 338.755, 377.629 335.250 C 378.396 334.052, 380.129 333.469, 383.124 333.401 C 389.514 333.256, 389.730 333.125, 387.139 330.967 C 384.086 328.423, 379.950 328.465, 376.635 331.073 M 396.472 330.045 C 395.134 332.211, 397.746 333.096, 404.599 332.799 C 409.934 332.568, 411.500 332.160, 411.500 331 C 411.500 329.833, 409.907 329.435, 404.335 329.208 C 399.792 329.023, 396.915 329.329, 396.472 330.045 M 308 335 C 306.516 337.773, 308.374 341, 311.453 341 C 315.520 341, 317 339.933, 317 337 C 317 332.715, 310.050 331.170, 308 335 M 396.431 336.112 C 395.166 338.158, 398.444 339.114, 404.892 338.579 C 411.771 338.008, 412.558 337.711, 411.541 336.067 C 410.659 334.639, 397.317 334.679, 396.431 336.112 M 396.431 342.112 C 395.314 343.920, 398.123 344.968, 404.128 344.985 C 409.415 344.999, 413.006 343.339, 411.325 341.658 C 410.195 340.528, 397.164 340.925, 396.431 342.112" stroke="none" fill="black" fill-rule="evenodd"/>
</svg>